<svg width="100" height="100" viewBox="0 0 100 100" fill="none" xmlns="http://www.w3.org/2000/svg">
<path d="M73.8426 27.2191C73.4471 26.8234 72.8982 26.5957 72.3386 26.5957C71.779 26.5957 71.2301 26.8234 70.8343 27.2191C70.4386 27.6149 70.2109 28.1617 70.2109 28.7234C70.2109 29.2829 70.4384 29.8319 70.8343 30.2276C71.2303 30.6234 71.779 30.851 72.3386 30.851C72.8982 30.851 73.4471 30.6234 73.8426 30.2276C74.2384 29.8319 74.4663 29.2829 74.4663 28.7234C74.4663 28.1638 74.2386 27.6149 73.8426 27.2191Z" fill="white"/>
<path fill-rule="evenodd" clip-rule="evenodd" d="M13.618 55.3184H28.9372C29.9948 55.3184 30.8521 56.1757 30.8521 57.2333V72.5524C30.8521 73.61 29.9946 74.4673 28.9372 74.4673H13.618C12.5606 74.4673 11.7031 73.61 11.7031 72.5524V57.2333C11.7031 56.1757 12.5606 55.3184 13.618 55.3184ZM15.5329 70.6375H27.0223V59.1481H15.5329V70.6375Z" fill="white"/>
<path fill-rule="evenodd" clip-rule="evenodd" d="M96.6438 41.0016C97.2059 40.4397 98.0518 40.271 98.7865 40.5756C99.5213 40.8799 100 41.597 100 42.3921V98.0341C100 99.12 99.1198 100 98.0341 100H42.3919C41.5966 100 40.8797 99.5213 40.5754 98.7865C40.2712 98.052 40.4395 97.2062 41.0016 96.6438L53.2506 84.3949L53.2516 84.3939L53.2526 84.393L76.6073 61.0383L76.6081 61.0373C76.6085 61.0369 76.6089 61.0367 76.6091 61.0363L96.6438 41.0016ZM47.1388 96.068H96.0679V47.1388L88.5641 54.6414L90.441 56.5183C91.2088 57.2861 91.2088 58.531 90.441 59.2988C90.057 59.6826 89.5539 59.8747 89.0507 59.8747C88.5476 59.8747 88.0445 59.6828 87.6605 59.2988L85.7838 57.4221L80.7787 62.4271L82.6556 64.304C83.4234 65.072 83.4234 66.317 82.6556 67.0848C82.2716 67.4687 81.7685 67.6606 81.2653 67.6606C80.7622 67.6606 80.2591 67.4687 79.8751 67.0848L77.9982 65.2079L72.9933 70.2127L74.8702 72.0896C75.638 72.8576 75.638 74.1025 74.8702 74.8703C74.4862 75.2543 73.9831 75.4462 73.48 75.4462C72.9768 75.4462 72.4737 75.2543 72.0897 74.8703L70.2128 72.9934L65.2078 77.9985L67.0847 79.8753C67.8524 80.6431 67.8524 81.8881 67.0847 82.6559C66.7007 83.0397 66.1975 83.2318 65.6944 83.2318C65.1912 83.2318 64.6881 83.0399 64.3041 82.6559L62.4274 80.7792L57.4224 85.7842L59.2993 87.6611C60.0671 88.4291 60.0671 89.674 59.2993 90.4418C58.9153 90.8258 58.4121 91.0177 57.909 91.0177C57.4059 91.0177 56.9027 90.8258 56.5187 90.4418L54.6418 88.5649L47.1388 96.068Z" fill="white"/>
<path fill-rule="evenodd" clip-rule="evenodd" d="M87.1317 65.4598C87.6835 64.908 88.5138 64.7426 89.2351 65.0416C89.9563 65.3404 90.4264 66.0442 90.4264 66.8247V88.4965C90.4264 89.5624 89.5622 90.4264 88.4964 90.4264H66.8246C66.0439 90.4264 65.3402 89.9563 65.0415 89.2351C64.7427 88.5138 64.9081 87.6837 65.4599 87.1318L87.1317 65.4598ZM71.4842 86.5665H86.5664V71.4841L71.4842 86.5665Z" fill="white"/>
<path fill-rule="evenodd" clip-rule="evenodd" d="M90.9144 29.1524C90.3739 28.6149 89.5693 28.438 88.8509 28.6995L75.4451 33.5833C75.1771 33.681 74.9338 33.8354 74.7318 34.0362L70.9624 37.786L46.3487 13.3003C45.9804 12.9341 45.4811 12.7283 44.9605 12.7283C44.4398 12.7283 43.9403 12.9341 43.5722 13.3003L13.9448 42.7735H6.7034L44.9605 4.71537L65.9543 25.5999C66.7212 26.3626 67.964 26.3626 68.731 25.5999C69.4977 24.8372 69.4977 23.6005 68.731 22.8376L46.3489 0.572021C45.5821 -0.190674 44.3393 -0.190674 43.5722 0.572021L0.575033 43.3454C0.0137143 43.904 -0.154348 44.744 0.149381 45.4739C0.453306 46.204 1.16914 46.6798 1.96331 46.6798H3.92665V98.0469C3.92665 99.1256 4.80584 100 5.88999 100H37.1044C38.1885 100 39.0677 99.1256 39.0677 98.0469C39.0677 96.9682 38.1885 96.0938 37.1044 96.0938H7.85333V46.6798H14.758C15.2787 46.6798 15.778 46.4739 16.1463 46.1077L44.9605 17.4435L68.1856 40.5479L39.0704 69.5118V51.9532H52.8138C53.898 51.9532 54.7772 51.0788 54.7772 50.0001C54.7772 48.9214 53.898 48.047 52.8138 48.047H37.1071C36.0229 48.047 35.1438 48.9214 35.1438 50.0001V72.6563C35.1438 72.8842 35.185 73.1018 35.257 73.3051L33.4981 75.0549C30.3901 78.1467 30.3901 83.1776 33.4981 86.2694C35.0523 87.8154 37.0932 88.5885 39.1346 88.5883C41.1757 88.5883 43.2174 87.8153 44.7712 86.2696L61.3284 69.7985C62.0951 69.0358 62.0951 67.7991 61.3284 67.0364C60.5618 66.2737 59.319 66.2737 58.5517 67.0364L46.0075 79.5153L40.2877 73.8252L76.1593 38.1403L81.8791 43.8304L68.1721 57.4663C67.4054 58.229 67.4054 59.4657 68.1721 60.2284C68.9389 60.9911 70.1817 60.9911 70.9488 60.2284L86.0049 45.2507C86.2065 45.0499 86.362 44.8077 86.46 44.5413L91.3695 31.2052C91.6324 30.4911 91.4549 29.6901 90.9144 29.1524ZM43.2312 82.2772L41.9946 83.5072C41.2307 84.2672 40.2153 84.6858 39.1348 84.6858C38.0544 84.6858 37.0388 84.2672 36.275 83.5072C35.5109 82.7473 35.0904 81.7369 35.0904 80.6623C35.0904 79.5877 35.5107 78.5772 36.2748 77.8172L37.5114 76.5871L43.2312 82.2772ZM79.7407 36.1782L83.8515 40.2677L86.2271 33.8151L79.7407 36.1782Z" fill="white"/>
<path d="M66.3973 62.3246C66.0018 61.9288 65.4529 61.7012 64.8933 61.7012C64.3337 61.7012 63.7848 61.9288 63.389 62.3246C62.9933 62.7224 62.7656 63.2693 62.7656 63.8288C62.7656 64.3905 62.9931 64.9373 63.389 65.3352C63.7848 65.731 64.3316 65.9565 64.8933 65.9565C65.4529 65.9565 66.0018 65.731 66.3973 65.3352C66.7931 64.9373 67.0209 64.3884 67.0209 63.8288C67.0209 63.2693 66.7933 62.7224 66.3973 62.3246Z" fill="white"/>
<path fill-rule="evenodd" clip-rule="evenodd" d="M37.2344 37.2339C37.2344 33.1278 40.5751 29.7871 44.6812 29.7871C48.7873 29.7871 52.128 33.1278 52.128 37.2339C52.128 41.34 48.7873 44.6807 44.6812 44.6807C40.5751 44.6807 37.2344 41.34 37.2344 37.2339ZM41.1537 37.2339C41.1537 39.1791 42.7362 40.7614 44.6812 40.7614C46.6262 40.7614 48.2086 39.1789 48.2086 37.2339C48.2086 35.2889 46.6262 33.7065 44.6812 33.7065C42.7362 33.7065 41.1537 35.2889 41.1537 37.2339Z" fill="white"/>
</svg>
