<svg width="20" height="20" viewBox="0 0 20 20" fill="none" xmlns="http://www.w3.org/2000/svg">
<rect x="1" y="1" width="18" height="18" rx="2" fill="#D0A523"/>
<path fill-rule="evenodd" clip-rule="evenodd" d="M6.74179 6.49349L13.7613 13.513C13.7716 13.5233 13.7812 13.5338 13.7902 13.5448L13.8219 11.1902C13.8255 10.9272 14.0416 10.71 14.3047 10.7052C14.5678 10.7004 14.7781 10.9098 14.7746 11.1728L14.7273 14.6846C14.7234 14.9481 14.5056 15.165 14.2423 15.1689L10.7312 15.2162C10.4682 15.2197 10.2588 15.0093 10.2636 14.7463C10.2684 14.4832 10.4855 14.2671 10.7486 14.2635L13.1059 14.2318L13.1102 14.2275C13.0988 14.2181 13.0877 14.208 13.077 14.1973L6.05749 7.17779L6.02577 9.53508C6.02221 9.79813 5.80608 10.0153 5.54301 10.0201C5.27989 10.0249 5.06955 9.81546 5.07309 9.55246L5.12036 6.04074C5.12431 5.7772 5.34206 5.56028 5.6054 5.55637L9.11649 5.50912C9.37953 5.50558 9.58891 5.71596 9.58409 5.97904C9.57929 6.24211 9.36216 6.45825 9.09912 6.4618L6.74179 6.49349Z" fill="white"/>
</svg>
