<svg width="100" height="100" viewBox="0 0 100 100" fill="none" xmlns="http://www.w3.org/2000/svg">
<path d="M46.2623 14.7662C45.7679 14.2635 45.0841 13.9785 44.3822 13.9785C43.6828 13.9785 42.9966 14.2635 42.5019 14.7662C42.0072 15.2661 41.7227 15.957 41.7227 16.6667C41.7227 17.3737 42.007 18.0672 42.5019 18.5672C42.9966 19.0672 43.6828 19.3549 44.3822 19.3549C45.0817 19.3549 45.7679 19.0672 46.2623 18.5672C46.757 18.0645 47.0418 17.3737 47.0418 16.6667C47.0418 15.9597 46.7572 15.2661 46.2623 14.7662Z" fill="white"/>
<path d="M56.8993 14.7662C56.4046 14.2662 55.7184 13.9785 55.0189 13.9785C54.3168 13.9785 53.6333 14.2662 53.1386 14.7662C52.6442 15.2661 52.3594 15.9597 52.3594 16.6667C52.3594 17.3737 52.6439 18.0672 53.1386 18.5672C53.6333 19.0672 54.3195 19.3549 55.0189 19.3549C55.7184 19.3549 56.4019 19.0672 56.8993 18.5672C57.3937 18.0672 57.6785 17.3737 57.6785 16.6667C57.6785 15.9597 57.3939 15.2661 56.8993 14.7662Z" fill="white"/>
<path fill-rule="evenodd" clip-rule="evenodd" d="M31.082 19.8925C31.082 8.92381 39.672 0 50.231 0C60.7899 0 69.3799 8.92381 69.3799 19.8925C69.3799 30.8611 60.7899 39.7849 50.231 39.7849C39.672 39.7849 31.082 30.8611 31.082 19.8925ZM34.8235 20.0496C34.8235 28.2058 39.6151 35.7512 50.3316 36.0215C58.1829 36.0215 65.6405 31.4707 65.7943 20.0496C65.7943 9.63038 58.0191 3.72804 50.1678 3.72804C42.3165 3.72804 34.969 10.1731 34.8235 20.0496Z" fill="white"/>
<path d="M55.2803 24.4518C54.3436 23.481 53.0427 23.7989 52.1057 24.7698C51.137 25.7742 49.5608 25.7742 48.5922 24.7698C47.6554 23.7987 46.695 23.4807 45.7582 24.4518C44.8217 25.4226 45.689 26.3814 46.6255 27.3524C46.6255 27.3524 48.6213 29.0026 50.486 29.0026C52.3506 29.0026 54.3566 27.3524 54.3566 27.3524C55.2932 26.3816 56.0928 25.4529 55.2803 24.4518Z" fill="white"/>
<path fill-rule="evenodd" clip-rule="evenodd" d="M77.7749 87.4019C83.5135 80.846 86.4031 73.2024 86.4031 63.8237C86.4031 55.8713 83.933 48.2835 79.2596 41.8801C78.4514 40.7725 77.4216 40.5518 76.3138 41.3606C75.2067 42.1695 76.1068 43.4698 76.9152 44.5775C80.9638 50.1248 82.9099 56.9318 82.9099 63.8237C82.9099 70.1281 81.3883 76.0149 78.2529 80.9911C76.9475 77.6647 73.3018 75.1199 69.6144 74.4377L65.6497 73.7043C65.2403 73.6285 64.9432 73.2714 64.9432 72.8552V71.973C64.9432 71.9015 64.9385 71.8312 64.9325 71.7612C66.9529 69.6922 68.2015 66.8657 68.2015 63.7514V57.7705C68.2015 51.4455 63.0582 46.2997 56.7363 46.2997C53.8395 46.2997 51.0844 47.4007 48.9906 49.3201C46.9489 47.4459 44.2296 46.2997 41.2469 46.2997C34.9248 46.2997 29.7817 51.4455 29.7817 57.7705V58.1681V63.7514C29.7817 67.7615 31.8507 71.2955 34.9754 73.3467C34.927 73.4321 34.6021 73.6943 34.5433 73.7388C34.4735 73.7706 34.401 73.7974 34.3228 73.8118L30.2576 74.5638C26.8211 75.1996 23.6456 78.0241 22.1722 80.9911C19.2644 76.1448 17.4575 69.876 17.4575 63.8237C17.4575 57.5487 19.2492 51.5329 22.6556 46.2997C23.4038 45.1504 23.8044 44.0068 22.6556 43.2583C21.5063 42.5093 20.4009 42.5869 19.6528 43.7362C15.7204 49.778 13.7148 56.5836 13.7148 63.8232C13.7148 73.2019 16.9171 80.8455 22.6556 87.4014L26.166 90.9143C32.7188 96.6557 40.8588 100.001 50.2329 100.001C59.6069 100.001 67.7115 96.6557 74.2642 90.9143L77.7749 87.4019ZM58.0432 50.0008C60.7583 50.0008 64.1505 52.1945 65.0708 56.4439L61.4108 54.3716C60.3658 53.757 58.8217 54.4195 58.0432 55.3493C56.7564 56.8859 54.2323 57.6672 52.2517 57.816C52.2484 57.7048 52.2451 57.5835 52.2416 57.4538C52.2009 55.9524 52.1297 53.3277 51.6686 52.1945C54.0645 49.9043 55.7366 49.9472 57.381 49.9895C57.6017 49.9951 57.8219 50.0008 58.0432 50.0008ZM65.0732 62.6072V59.4542L60.8793 56.9954C58.8123 58.7403 54.8677 60.1692 52.1327 60.2936V61.6406C52.1327 63.1648 51.6094 67.8115 51.0675 69.1431C52.2947 70.5284 55.2945 71.8077 57.1657 71.8077C60.7503 71.8077 65.0735 66.1936 65.0732 62.6072ZM48.9909 72.202C49.4007 72.5778 49.8336 72.9242 50.2901 73.2349L49.7062 74.0967L48.1687 73.8123C48.0933 73.7984 47.5645 73.4321 47.5169 73.3481C48.0392 73.0054 48.5324 72.623 48.9909 72.202ZM40.9473 49.3685H40.9415C37.4641 49.3685 33.3887 54.2855 33.2216 57.7239H36.3233C38.5144 57.7239 40.9048 57.4318 42.312 55.7517C43.0907 54.8219 44.3838 54.6556 45.4288 55.2703L48.7227 56.4075C48.7227 53.3625 47.9456 52.2893 46.9641 51.0439C45.6438 49.3685 42.5074 49.3685 40.9473 49.3685ZM33.2116 64.4587V60.9697H35.121C38.0634 60.9697 42.2134 59.9302 44.4229 58.0653L48.9246 59.3286V63.1041C48.2041 71.072 43.5004 71.6805 39.916 71.6805C36.3316 71.6805 33.2116 68.0448 33.2116 64.4587ZM41.2645 81.8673L44.1364 76.0179C44.0252 75.8407 43.9082 75.4226 43.8043 75.0517C43.7385 74.8164 43.6779 74.6001 43.6276 74.4763C43.0978 74.5515 41.7568 74.5947 41.2065 74.5947C40.6554 74.5947 39.3498 74.5533 38.8193 74.4778C38.7653 74.6107 38.7136 74.8504 38.6586 75.1056C38.5817 75.4624 38.4982 75.8495 38.3926 76.0179L41.2645 81.8673ZM57.5998 95.8247C57.0819 95.9205 56.4599 96.0553 55.7884 96.2008C53.9877 96.591 51.8307 97.0584 50.3687 97.0584C40.9301 97.0586 31.9506 92.7073 26.0445 86.2229C26.0445 86.2229 25.0082 85.8423 25.0082 83.231C25.0082 80.4144 27.0101 78.265 29.7784 77.7529L36.3552 76.9515L40.8215 86.2229C40.955 86.4365 41.0204 86.5922 41.0679 86.7054C41.1821 86.977 41.1938 87.0049 41.7976 87.0049C42.357 87.0049 42.364 86.9811 42.4285 86.7617C42.4627 86.6455 42.513 86.4744 42.6701 86.2229L46.485 76.9522L51.1448 77.7529C53.913 78.265 57.5998 82.631 57.5998 85.4475V95.8247ZM61.0756 94.7974C65.7455 93.1255 71.3445 88.7333 74.742 85.2502V83.1876C74.742 80.4719 72.3083 78.6511 69.6394 78.1577L65.6747 77.4243C63.5298 77.0274 60.6373 75.9956 59.9894 74.0103C58.8754 74.3724 56.4934 74.8133 55.2602 74.8133C54.6843 74.8133 54.1153 74.7648 53.5546 74.6804L53.3493 74.9834C57.0871 76.7211 61.0756 81.476 61.0756 85.7587V94.7974Z" fill="white"/>
<path d="M71.5296 33.8918C71.5208 33.8848 71.511 33.8773 71.5027 33.8712C70.3296 32.9813 68.6649 33.2219 67.7852 34.4082C66.91 35.5879 67.1404 37.2591 68.2974 38.1527C68.3062 38.1596 68.316 38.1672 68.3242 38.1733C68.8019 38.5355 69.3609 38.7103 69.9153 38.7103C70.7226 38.7103 71.52 38.3395 72.0418 37.6363C72.917 36.4565 72.6865 34.7854 71.5296 33.8918Z" fill="white"/>
<path d="M29.4318 34.3223C28.5166 33.178 26.8594 33.0015 25.7297 33.9284L25.6836 33.9659C24.55 34.8877 24.3689 36.5651 25.2791 37.7132C25.7989 38.3694 26.5622 38.7103 27.3329 38.7103C27.9112 38.7103 28.4931 38.5181 28.9793 38.1231L29.0427 38.0711C30.1724 37.1446 30.3464 35.4664 29.4318 34.3223Z" fill="white"/>
</svg>
