<svg width="20" height="20" viewBox="0 0 20 20" fill="none" xmlns="http://www.w3.org/2000/svg">
<path fill-rule="evenodd" clip-rule="evenodd" d="M10 1C12.404 1 14.6641 1.93614 16.364 3.63602C18.0638 5.33593 19 7.59602 19 10C19 12.404 18.0639 14.6641 16.364 16.364C14.6641 18.0639 12.404 19 10 19C7.59602 19 5.33586 18.0639 3.63602 16.364C1.93618 14.6641 1 12.404 1 10C1 7.59602 1.93614 5.33589 3.63602 3.63602C5.33589 1.93614 7.59602 1 10 1ZM12.5312 11.9688C12.5312 10.573 11.3957 9.4375 10 9.4375C9.19137 9.4375 8.53996 8.75146 8.59727 7.93081C8.64564 7.23809 9.20677 6.67693 9.89949 6.62852C10.7201 6.57114 11.4062 7.22259 11.4062 8.03125C11.4062 8.34741 11.6671 8.60264 11.9853 8.5935C12.2919 8.58471 12.5331 8.32227 12.5312 8.01554C12.5242 6.86638 11.7472 5.89702 10.6914 5.59679C10.6154 5.57516 10.5625 5.50661 10.5625 5.42761V4.9375C10.5625 4.61782 10.2959 4.36045 9.97282 4.37563C9.67027 4.38987 9.4375 4.65048 9.4375 4.95339V5.42751C9.4375 5.50671 9.38424 5.57523 9.30805 5.59693C8.24771 5.89871 7.46875 6.87542 7.46875 8.03125C7.46875 9.42699 8.60426 10.5625 10 10.5625C10.8086 10.5625 11.46 11.2485 11.4027 12.0692C11.3544 12.7619 10.7932 13.3231 10.1005 13.3715C9.27989 13.4289 8.59375 12.7774 8.59375 11.9688C8.59375 11.6526 8.33293 11.3974 8.01473 11.4065C7.70809 11.4153 7.46692 11.6777 7.46879 11.9845C7.47582 13.1336 8.25277 14.103 9.30858 14.4032C9.38455 14.4248 9.4375 14.4934 9.4375 14.5724V15.0625C9.4375 15.3822 9.70412 15.6396 10.0272 15.6244C10.3297 15.6101 10.5625 15.3495 10.5625 15.0466V14.5725C10.5625 14.4933 10.6158 14.4248 10.6919 14.4031C11.7523 14.1013 12.5312 13.1246 12.5312 11.9688Z" fill="#D0A523"/>
</svg>
