<svg width="24" height="24" viewBox="0 0 24 24" fill="none" xmlns="http://www.w3.org/2000/svg">
<path d="M11.9626 23.976C18.8658 23.976 23.4515 19.1304 23.4515 12.2909C23.4515 11.5078 23.3702 10.9033 23.2569 10.3004H11.9642V14.4123H18.7542C18.4767 16.1588 16.6982 19.569 11.9642 19.569C7.88576 19.569 4.55536 16.1907 4.55536 12.0134C4.55536 7.83605 7.88416 4.45621 11.9642 4.45621C14.2977 4.45621 15.8481 5.4515 16.7301 6.30005L19.9776 3.18339C17.8865 1.22631 15.1941 0.0507812 11.9626 0.0507812C5.35287 0.0507812 0 5.40365 0 12.0134C0 18.6231 5.35287 23.976 11.9626 23.976Z" fill="#D3D5D9"/>
</svg>
