<svg width="20" height="20" viewBox="0 0 20 20" fill="none" xmlns="http://www.w3.org/2000/svg">
<path fill-rule="evenodd" clip-rule="evenodd" d="M18.5147 8.82913C18.5143 8.82872 18.5139 8.82831 18.5135 8.8279L11.1709 1.4856C10.8579 1.17249 10.4418 1 9.99919 1C9.55658 1 9.14048 1.17235 8.82737 1.48546L1.48864 8.82405C1.48616 8.82652 1.48369 8.82913 1.48122 8.8316C0.838519 9.47801 0.839618 10.5268 1.48438 11.1716C1.77895 11.4663 2.168 11.637 2.58397 11.6548C2.60086 11.6565 2.61789 11.6573 2.63506 11.6573H2.92771V17.0608C2.92771 18.13 3.79769 19 4.86721 19H7.73986C8.03099 19 8.2672 18.7639 8.2672 18.4727V14.2363C8.2672 13.7484 8.66408 13.3515 9.15201 13.3515H10.8464C11.3343 13.3515 11.7312 13.7484 11.7312 14.2363V18.4727C11.7312 18.7639 11.9673 19 12.2585 19H15.1312C16.2007 19 17.0707 18.13 17.0707 17.0608V11.6573H17.342C17.7845 11.6573 18.2006 11.4849 18.5139 11.1718C19.1593 10.526 19.1596 9.4754 18.5147 8.82913Z" fill="#D0A523"/>
</svg>
