<svg width="18" height="18" viewBox="0 0 18 18" fill="none" xmlns="http://www.w3.org/2000/svg">
<path opacity="0.7" d="M17.1231 7.91961C17.0648 7.55459 16.7217 7.30592 16.3567 7.36416C15.9917 7.42239 15.743 7.76553 15.8012 8.13055C15.8019 8.13455 15.8025 8.13851 15.8032 8.14247C16.4848 12.1547 13.7848 15.9597 9.7726 16.6413C5.76041 17.3228 1.95539 14.6228 1.27382 10.6106C0.592252 6.59843 3.29229 2.79341 7.30445 2.11184C9.77186 1.69271 12.2833 2.55459 13.9734 4.40051L11.0085 5.38835C10.6578 5.50506 10.4681 5.88396 10.5848 6.23471C10.5848 6.23478 10.5848 6.2349 10.5849 6.23498C10.7016 6.58573 11.0805 6.77541 11.4312 6.65875C11.4313 6.65871 11.4314 6.65867 11.4315 6.65867L15.4472 5.32012C15.7206 5.22906 15.905 4.97318 15.905 4.68498V0.669294C15.905 0.299647 15.6054 0 15.2357 0C14.8661 0 14.5664 0.299647 14.5664 0.669294V3.11416C11.1197 -0.164118 5.66794 -0.0275295 2.38966 3.41922C-0.888611 6.86596 -0.752062 12.3177 2.69472 15.596C6.14151 18.8743 11.5932 18.7377 14.8715 15.2909C16.7409 13.3255 17.5752 10.5942 17.1231 7.91961Z" fill="#263142"/>
</svg>
