<svg width="17" height="24" viewBox="0 0 17 24" fill="none" xmlns="http://www.w3.org/2000/svg">
<path fill-rule="evenodd" clip-rule="evenodd" d="M0 8.34229C0 3.74238 3.81313 0 8.5 0C13.187 0 17 3.74238 17 8.34229C17 13.8396 8.50836 24 8.50836 24C8.50836 24 0 14.1239 0 8.34229ZM8.5 11.8258C9.42881 11.8258 10.3575 11.4788 11.0646 10.7849C12.4788 9.39712 12.4788 7.13892 11.0646 5.75098C10.3796 5.07876 9.46881 4.7083 8.5 4.7083C7.53119 4.7083 6.6203 5.07861 5.93552 5.75098C4.52134 7.13892 4.52134 9.39712 5.93552 10.7849C6.64239 11.4788 7.57134 11.8258 8.5 11.8258Z" fill="white"/>
</svg>
