<svg width="40" height="40" viewBox="0 0 40 40" fill="none" xmlns="http://www.w3.org/2000/svg">
<g opacity="0.2">
<path d="M34.5311 27.0172L30.1417 22.6278C28.574 21.0601 25.909 21.6873 25.2819 23.7251C24.8117 25.1361 23.244 25.9199 21.8331 25.6063C18.6978 24.8225 14.4652 20.7466 13.6814 17.4545C13.2111 16.0436 14.1517 14.476 15.5625 14.0057C17.6005 13.3787 18.2275 10.7137 16.6599 9.14602L12.2705 4.75661C11.0164 3.65926 9.13518 3.65926 8.03783 4.75661L5.0593 7.73514C2.08077 10.8704 5.37283 19.179 12.7408 26.5469C20.1087 33.9148 28.4172 37.3637 31.5525 34.2284L34.5311 31.2498C35.6285 29.9957 35.6285 28.1145 34.5311 27.0172Z" fill="#263142"/>
</g>
</svg>
