<svg width="100" height="100" viewBox="0 0 100 100" fill="none" xmlns="http://www.w3.org/2000/svg">
<path fill-rule="evenodd" clip-rule="evenodd" d="M90.5557 96.4314V88.9655C93.8545 88.1376 96.3429 84.5594 96.3429 80.2842C96.3429 75.3978 93.0925 71.4223 89.0967 71.4223C85.101 71.4223 81.8505 75.3978 81.8505 80.2842C81.8505 84.5597 84.339 88.1376 87.6377 88.9655V96.4314H78.93V1.06383C78.93 0.476292 78.4537 0 77.8661 0H39.1389C38.5513 0 38.075 0.476293 38.075 1.06383V15.2419L20.9195 30.8677C20.6981 31.0693 20.572 31.3548 20.572 31.6542V96.4314H11.7045V88.9655C15.0033 88.1376 17.4917 84.5594 17.4917 80.2842C17.4917 75.3978 14.2411 71.4223 10.2455 71.4223C6.25 71.4223 2.99933 75.3978 2.99933 80.2842C2.99933 84.5597 5.48781 88.1376 8.78653 88.9655V96.4314H0V100H99.407V96.4314H90.5557ZM84.7687 80.2842C84.7687 77.3653 86.7102 74.991 89.0969 74.991C91.4836 74.991 93.4251 77.3653 93.4251 80.2842C93.4251 83.2031 91.4836 85.5775 89.0969 85.5775C86.7102 85.5775 84.7687 83.2031 84.7687 80.2842ZM10.2456 74.991C7.85887 74.991 5.91742 77.3653 5.91742 80.2842C5.91742 83.2031 7.85907 85.5775 10.2456 85.5775C12.6322 85.5775 14.5738 83.2031 14.5738 80.2842C14.5738 77.3653 12.6324 74.991 10.2456 74.991ZM23.49 35.7678H33.2318C34.2172 35.7678 35.0161 34.9689 35.0161 33.9835C35.0161 32.998 34.2172 32.1991 33.2318 32.1991H24.343L38.075 19.6918V80.5779C38.075 81.3837 38.7282 82.0369 39.534 82.0369C40.3398 82.0369 40.993 81.3837 40.993 80.5779V16.1379V12.584V3.56864H76.0119V14.3536H45.5545C44.569 14.3536 43.7702 15.1524 43.7702 16.1379C43.7702 17.1233 44.569 17.9222 45.5545 17.9222H76.0119V96.4314H72.948V79.6508C72.948 79.0632 72.4717 78.587 71.8841 78.587H44.926C44.3385 78.587 43.8622 79.0633 43.8622 79.6508V96.4314H40.993V94.2018C40.993 93.396 40.3398 92.7428 39.534 92.7428C38.7282 92.7428 38.075 93.396 38.075 94.2018V96.4314H23.49V35.7678ZM46.7802 96.4314H70.03V82.1556H46.7802V96.4314Z" fill="white"/>
<path d="M38.3672 87.4779C38.3672 86.7555 38.9528 86.1699 39.6752 86.1699V86.1699C40.3976 86.1699 40.9832 86.7555 40.9832 87.4779V88.0534C40.9832 88.7758 40.3976 89.3614 39.6752 89.3614V89.3614C38.9528 89.3614 38.3672 88.7758 38.3672 88.0534V87.4779Z" fill="white"/>
<path fill-rule="evenodd" clip-rule="evenodd" d="M26.1602 40.4252C26.1602 39.8376 26.6364 39.3613 27.224 39.3613H33.8162C34.4038 39.3613 34.8801 39.8376 34.8801 40.4252V48.9358C34.8801 49.5233 34.4038 49.9996 33.8162 49.9996H27.224C26.6364 49.9996 26.1602 49.5233 26.1602 48.9358V40.4252ZM29.0671 46.4533H31.9733V42.9077H29.0671V46.4533Z" fill="white"/>
<path fill-rule="evenodd" clip-rule="evenodd" d="M27.224 63.8297C26.6364 63.8297 26.1602 63.3534 26.1602 62.7659V54.2552C26.1602 53.6677 26.6364 53.1914 27.224 53.1914H33.8162C34.4038 53.1914 34.8801 53.6677 34.8801 54.2552V62.7659C34.8801 63.3534 34.4038 63.8297 33.8162 63.8297H27.224ZM31.9733 56.7377H29.0671V60.2834H31.9733V56.7377Z" fill="white"/>
<path fill-rule="evenodd" clip-rule="evenodd" d="M27.224 78.7242C26.6364 78.7242 26.1602 78.2479 26.1602 77.6604V69.1498C26.1602 68.5622 26.6364 68.0859 27.224 68.0859H33.8162C34.4038 68.0859 34.8801 68.5622 34.8801 69.1498V77.6604C34.8801 78.2479 34.4038 78.7242 33.8162 78.7242H27.224ZM31.9733 71.6324H29.0671V75.1778H31.9733V71.6324Z" fill="white"/>
<path fill-rule="evenodd" clip-rule="evenodd" d="M27.224 92.5524C26.6364 92.5524 26.1602 92.0761 26.1602 91.4885V82.9779C26.1602 82.3904 26.6364 81.9141 27.224 81.9141H33.8162C34.4038 81.9141 34.8801 82.3904 34.8801 82.9779V91.4885C34.8801 92.0761 34.4038 92.5524 33.8162 92.5524H27.224ZM31.9733 85.4604H29.0671V89.006H31.9733V85.4604Z" fill="white"/>
<path d="M49.2804 30.1159C49.2804 29.122 48.4747 28.3162 47.4807 28.3162H46.4846V24.8768H69.4865V28.3162H53.9671C52.9731 28.3162 52.1673 29.122 52.1673 30.1159V30.1159C52.1673 31.1099 52.9731 31.9156 53.9671 31.9156H72.1733C72.2838 31.9156 72.3734 31.8261 72.3734 31.7156V22.3412C72.3734 21.7536 71.8971 21.2773 71.3095 21.2773H44.6615C44.0739 21.2773 43.5977 21.7536 43.5977 22.3412V31.8594C43.5977 31.8905 43.6228 31.9156 43.6539 31.9156H47.4807C48.4747 31.9156 49.2804 31.1099 49.2804 30.1159V30.1159Z" fill="white"/>
<path d="M72.3734 36.2271C72.3734 36.1955 72.3478 36.1699 72.3162 36.1699H68.4016C67.4077 36.1699 66.6019 36.9757 66.6019 37.9697V37.9697C66.6019 38.9637 67.4077 39.7695 68.4016 39.7695H69.4865V43.2087H46.4846V39.7695H62.0559C63.0499 39.7695 63.8557 38.9637 63.8557 37.9697V37.9697C63.8557 36.9757 63.0499 36.1699 62.0559 36.1699H43.7982C43.6875 36.1699 43.5977 36.2597 43.5977 36.3705V45.7444C43.5977 46.3319 44.0739 46.8082 44.6615 46.8082H71.3095C71.8971 46.8082 72.3734 46.3319 72.3734 45.7444V36.2271Z" fill="white"/>
<path d="M72.3734 50.2001C72.3734 50.0896 72.2838 50 72.1733 50H53.9274C52.9553 50 52.1673 50.788 52.1673 51.76V51.76C52.1673 52.7321 52.9553 53.5201 53.9274 53.5201H69.4865V57.1182H46.4846V53.5201H47.5204C48.4924 53.5201 49.2804 52.7321 49.2804 51.76V51.76C49.2804 50.788 48.4924 50 47.5204 50H43.6539C43.6228 50 43.5977 50.0252 43.5977 50.0563V59.5745C43.5977 60.162 44.0739 60.6383 44.6615 60.6383H71.3095C71.8971 60.6383 72.3734 60.162 72.3734 59.5745V50.2001Z" fill="white"/>
<path d="M72.3734 63.8872C72.3734 63.8557 72.3478 63.8301 72.3162 63.8301H68.3619C67.3899 63.8301 66.6019 64.6181 66.6019 65.5901V65.5901C66.6019 66.5621 67.3899 67.3501 68.3619 67.3501H69.4865V70.9483H46.4846V67.3501H61.9549C62.927 67.3501 63.715 66.5621 63.715 65.5901V65.5901C63.715 64.6181 62.927 63.8301 61.9549 63.8301H43.7968C43.6868 63.8301 43.5977 63.9193 43.5977 64.0293V73.4045C43.5977 73.9921 44.0739 74.4684 44.6615 74.4684H71.3095C71.8971 74.4684 72.3734 73.9921 72.3734 73.4045V63.8872Z" fill="white"/>
<path d="M51.4492 8.75525C51.4492 8.03287 52.0348 7.44727 52.7572 7.44727V7.44727C53.4796 7.44727 54.0652 8.03287 54.0652 8.75525V9.33077C54.0652 10.0531 53.4796 10.6388 52.7572 10.6388V10.6388C52.0348 10.6388 51.4492 10.0531 51.4492 9.33077V8.75525Z" fill="white"/>
<path d="M57.5508 8.75525C57.5508 8.03287 58.1364 7.44727 58.8588 7.44727V7.44727C59.5811 7.44727 60.1668 8.03287 60.1668 8.75525V9.33077C60.1668 10.0531 59.5811 10.6388 58.8588 10.6388V10.6388C58.1364 10.6388 57.5508 10.0531 57.5508 9.33077V8.75525Z" fill="white"/>
<path d="M62.7852 8.75526C62.7852 8.03287 63.3708 7.44727 64.0931 7.44727V7.44727C64.8155 7.44727 65.4011 8.03287 65.4011 8.75526V9.33077C65.4011 10.0531 64.8155 10.6388 64.0931 10.6388V10.6388C63.3708 10.6388 62.7852 10.0531 62.7852 9.33077V8.75526Z" fill="white"/>
</svg>
