<svg width="100" height="100" viewBox="0 0 100 100" fill="none" xmlns="http://www.w3.org/2000/svg">
<path d="M31.9102 64.3985C31.9102 63.5172 32.6246 62.8027 33.5059 62.8027C34.3872 62.8027 35.1016 63.5172 35.1016 64.3985C35.1016 65.2798 34.3872 65.9942 33.5059 65.9942C32.6246 65.9942 31.9102 65.2798 31.9102 64.3985Z" fill="white"/>
<path d="M67.8125 20.6036C67.8125 19.7223 68.5269 19.0078 69.4082 19.0078C70.2896 19.0078 71.004 19.7223 71.004 20.6036C71.004 21.4849 70.2896 22.1993 69.4082 22.1993C68.5269 22.1993 67.8125 21.4849 67.8125 20.6036Z" fill="white"/>
<mask id="path-3-outside-1" maskUnits="userSpaceOnUse" x="20.6719" y="18.1484" width="49" height="39" fill="black">
<rect fill="white" x="20.6719" y="18.1484" width="49" height="39"/>
<path fill-rule="evenodd" clip-rule="evenodd" d="M67.1976 33.7042C67.9113 34.3835 68.3044 35.3161 68.3044 36.3301C68.3044 37.8064 67.3524 39.0924 66.0107 39.6315C66.3592 40.3808 66.4333 41.3618 66.1721 42.3691C65.9491 43.2292 65.4598 44.1222 64.6673 44.7434C65.1297 45.822 65.0694 47.2227 64.4642 48.4597C64.1291 49.1449 63.6687 49.6965 63.1156 50.0939C63.4909 50.9562 63.4711 52.1134 63.0197 53.2353C62.2271 55.2052 60.422 56.3812 58.1909 56.3812H50.0356C48.2633 56.3812 46.5136 55.8967 44.8213 55.4282C43.4063 55.0364 42.0578 54.6641 40.7224 54.5585V54.7625C40.7224 55.1641 40.3968 55.4897 39.9952 55.4897H25.1841C24.7824 55.4897 24.4568 55.1641 24.4568 54.7625C24.4568 54.7625 23.2146 51.1484 22.1466 46.0244C21.0785 40.9004 22.1466 33.3706 22.1466 33.3706C22.1466 32.9689 22.4721 32.6874 22.8738 32.6874L39.9951 32.6522C40.3967 32.6522 40.7223 32.9778 40.7223 33.3794V33.5771C42.7078 33.3602 42.9084 32.1773 43.2456 30.185C43.4289 29.1018 43.6367 27.8743 44.2383 26.7217C45.269 24.7473 45.3525 23.1357 45.4135 21.9589L45.4136 21.9557C45.4356 21.533 45.4546 21.1679 45.5178 20.8579C45.7102 19.9137 46.332 19.2992 47.2239 19.1718C48.7043 18.9604 50.8152 20.2136 51.6517 21.8016C52.1415 22.7313 52.0995 24.7824 52.0567 26.8737C52.0058 29.3621 51.9537 31.9072 52.7949 32.6873L64.6057 32.6869C65.588 32.6869 66.5084 33.0481 67.1976 33.7042ZM60.3152 39.2682C60.3064 38.8666 60.6249 38.534 61.0264 38.5253L64.6625 38.4463C65.8687 38.42 66.85 37.4708 66.8499 36.3302C66.8499 35.7183 66.6172 35.1598 66.1947 34.7577C65.7772 34.3603 65.2129 34.1414 64.6057 34.1414L50.0906 34.1419C49.6891 34.1419 49.3634 33.8162 49.3634 33.4146C49.3634 33.0131 49.6891 32.6874 50.0906 32.6874H50.9872C50.2364 31.7107 50.3895 29.2108 50.5317 26.8869C50.6475 24.9962 50.7561 23.222 50.365 22.4795C49.7719 21.3539 48.23 20.4974 47.4296 20.6117C47.2417 20.6385 47.0334 20.7044 46.943 21.1483C46.9014 21.3523 46.8851 21.6678 46.8661 22.0332L46.866 22.0342C46.802 23.2707 46.7051 25.1392 45.5278 27.3947C45.0326 28.3437 44.8532 29.4031 44.6798 30.4277L44.6798 30.4277L44.6798 30.4277C44.3359 32.4589 43.9491 34.7441 40.7224 35.0367V40.7981C40.7224 41.1998 40.3968 41.5253 39.9952 41.5253C39.5935 41.5253 39.268 41.1998 39.268 40.7981V34.1066L23.601 34.0977C23.601 34.0977 21.918 40.5558 22.8738 44.8295C23.8296 49.1032 25.1841 54.0352 25.1841 54.0352H39.268V47.3432C39.268 46.9415 39.5935 46.6159 39.9952 46.6159C40.3968 46.6159 40.7224 46.9415 40.7224 47.3432V53.1C42.2459 53.2065 43.7491 53.622 45.2095 54.0263L45.2103 54.0266C46.8821 54.4894 48.4613 54.9266 50.0356 54.9266H58.1911C60.5201 54.9266 61.4002 53.3641 61.6705 52.6923C61.9927 51.8915 61.9785 51.1583 61.7935 50.7031C61.477 50.7811 61.1449 50.8212 60.8008 50.8212C60.3992 50.8212 60.0736 50.4956 60.0736 50.094C60.0736 49.6923 60.3992 49.3667 60.8008 49.3667C61.1716 49.3667 61.4922 49.298 61.7681 49.1863C61.7885 49.1765 61.8093 49.1677 61.8304 49.16C62.5515 48.8435 62.9563 48.2324 63.1578 47.8204C63.5505 47.0179 63.6174 46.0832 63.3643 45.4023C63.0098 45.5017 62.6208 45.5567 62.1962 45.5567C61.7946 45.5567 61.469 45.2311 61.469 44.8295C61.469 44.4279 61.7946 44.1023 62.1962 44.1023C64.0742 44.1023 64.6366 42.4962 64.7643 42.0039C64.9888 41.138 64.8525 40.2659 64.4585 39.9054L61.058 39.9794C60.6568 39.9867 60.3239 39.6697 60.3152 39.2682Z"/>
</mask>
<path fill-rule="evenodd" clip-rule="evenodd" d="M67.1976 33.7042C67.9113 34.3835 68.3044 35.3161 68.3044 36.3301C68.3044 37.8064 67.3524 39.0924 66.0107 39.6315C66.3592 40.3808 66.4333 41.3618 66.1721 42.3691C65.9491 43.2292 65.4598 44.1222 64.6673 44.7434C65.1297 45.822 65.0694 47.2227 64.4642 48.4597C64.1291 49.1449 63.6687 49.6965 63.1156 50.0939C63.4909 50.9562 63.4711 52.1134 63.0197 53.2353C62.2271 55.2052 60.422 56.3812 58.1909 56.3812H50.0356C48.2633 56.3812 46.5136 55.8967 44.8213 55.4282C43.4063 55.0364 42.0578 54.6641 40.7224 54.5585V54.7625C40.7224 55.1641 40.3968 55.4897 39.9952 55.4897H25.1841C24.7824 55.4897 24.4568 55.1641 24.4568 54.7625C24.4568 54.7625 23.2146 51.1484 22.1466 46.0244C21.0785 40.9004 22.1466 33.3706 22.1466 33.3706C22.1466 32.9689 22.4721 32.6874 22.8738 32.6874L39.9951 32.6522C40.3967 32.6522 40.7223 32.9778 40.7223 33.3794V33.5771C42.7078 33.3602 42.9084 32.1773 43.2456 30.185C43.4289 29.1018 43.6367 27.8743 44.2383 26.7217C45.269 24.7473 45.3525 23.1357 45.4135 21.9589L45.4136 21.9557C45.4356 21.533 45.4546 21.1679 45.5178 20.8579C45.7102 19.9137 46.332 19.2992 47.2239 19.1718C48.7043 18.9604 50.8152 20.2136 51.6517 21.8016C52.1415 22.7313 52.0995 24.7824 52.0567 26.8737C52.0058 29.3621 51.9537 31.9072 52.7949 32.6873L64.6057 32.6869C65.588 32.6869 66.5084 33.0481 67.1976 33.7042ZM60.3152 39.2682C60.3064 38.8666 60.6249 38.534 61.0264 38.5253L64.6625 38.4463C65.8687 38.42 66.85 37.4708 66.8499 36.3302C66.8499 35.7183 66.6172 35.1598 66.1947 34.7577C65.7772 34.3603 65.2129 34.1414 64.6057 34.1414L50.0906 34.1419C49.6891 34.1419 49.3634 33.8162 49.3634 33.4146C49.3634 33.0131 49.6891 32.6874 50.0906 32.6874H50.9872C50.2364 31.7107 50.3895 29.2108 50.5317 26.8869C50.6475 24.9962 50.7561 23.222 50.365 22.4795C49.7719 21.3539 48.23 20.4974 47.4296 20.6117C47.2417 20.6385 47.0334 20.7044 46.943 21.1483C46.9014 21.3523 46.8851 21.6678 46.8661 22.0332L46.866 22.0342C46.802 23.2707 46.7051 25.1392 45.5278 27.3947C45.0326 28.3437 44.8532 29.4031 44.6798 30.4277L44.6798 30.4277L44.6798 30.4277C44.3359 32.4589 43.9491 34.7441 40.7224 35.0367V40.7981C40.7224 41.1998 40.3968 41.5253 39.9952 41.5253C39.5935 41.5253 39.268 41.1998 39.268 40.7981V34.1066L23.601 34.0977C23.601 34.0977 21.918 40.5558 22.8738 44.8295C23.8296 49.1032 25.1841 54.0352 25.1841 54.0352H39.268V47.3432C39.268 46.9415 39.5935 46.6159 39.9952 46.6159C40.3968 46.6159 40.7224 46.9415 40.7224 47.3432V53.1C42.2459 53.2065 43.7491 53.622 45.2095 54.0263L45.2103 54.0266C46.8821 54.4894 48.4613 54.9266 50.0356 54.9266H58.1911C60.5201 54.9266 61.4002 53.3641 61.6705 52.6923C61.9927 51.8915 61.9785 51.1583 61.7935 50.7031C61.477 50.7811 61.1449 50.8212 60.8008 50.8212C60.3992 50.8212 60.0736 50.4956 60.0736 50.094C60.0736 49.6923 60.3992 49.3667 60.8008 49.3667C61.1716 49.3667 61.4922 49.298 61.7681 49.1863C61.7885 49.1765 61.8093 49.1677 61.8304 49.16C62.5515 48.8435 62.9563 48.2324 63.1578 47.8204C63.5505 47.0179 63.6174 46.0832 63.3643 45.4023C63.0098 45.5017 62.6208 45.5567 62.1962 45.5567C61.7946 45.5567 61.469 45.2311 61.469 44.8295C61.469 44.4279 61.7946 44.1023 62.1962 44.1023C64.0742 44.1023 64.6366 42.4962 64.7643 42.0039C64.9888 41.138 64.8525 40.2659 64.4585 39.9054L61.058 39.9794C60.6568 39.9867 60.3239 39.6697 60.3152 39.2682Z" fill="white"/>
<path d="M67.1976 33.7042L67.5644 33.3189L67.5644 33.3189L67.1976 33.7042ZM66.0107 39.6315L65.8124 39.1379L65.2918 39.3471L65.5284 39.8558L66.0107 39.6315ZM66.1721 42.3691L66.687 42.5027L66.1721 42.3691ZM64.6673 44.7434L64.3392 44.3248L64.0173 44.5771L64.1784 44.953L64.6673 44.7434ZM64.4642 48.4597L63.9864 48.226L63.9864 48.226L64.4642 48.4597ZM63.1156 50.0939L62.8053 49.6619L62.4566 49.9124L62.6279 50.3061L63.1156 50.0939ZM63.0197 53.2353L63.5132 53.4338L63.0197 53.2353ZM44.8213 55.4282L44.9632 54.9156L44.9632 54.9156L44.8213 55.4282ZM40.7224 54.5585L40.7644 54.0282L40.1905 53.9829V54.5585H40.7224ZM24.4568 54.7625H24.9887V54.6736L24.9599 54.5896L24.4568 54.7625ZM22.1466 46.0244L22.6673 45.9159H22.6673L22.1466 46.0244ZM22.1466 33.3706L22.6732 33.4453L22.6785 33.4081V33.3706H22.1466ZM22.8738 32.6874V33.2193L22.8749 33.2193L22.8738 32.6874ZM39.9951 32.6522V32.1203L39.994 32.1203L39.9951 32.6522ZM40.7223 33.5771H40.1904V34.1703L40.7801 34.1059L40.7223 33.5771ZM43.2456 30.185L42.7212 30.0962V30.0962L43.2456 30.185ZM44.2383 26.7217L43.7668 26.4755L43.7668 26.4756L44.2383 26.7217ZM45.4135 21.9589L45.9447 21.9864L45.9447 21.9863L45.4135 21.9589ZM45.4136 21.9557L44.8824 21.9281L44.8824 21.9283L45.4136 21.9557ZM45.5178 20.8579L46.039 20.9641L46.039 20.9641L45.5178 20.8579ZM47.2239 19.1718L47.1487 18.6452L47.1487 18.6452L47.2239 19.1718ZM51.6517 21.8016L52.1223 21.5536V21.5536L51.6517 21.8016ZM52.0567 26.8737L51.5249 26.8628V26.8628L52.0567 26.8737ZM52.7949 32.6873L52.4332 33.0773L52.5862 33.2192L52.7949 33.2192L52.7949 32.6873ZM64.6057 32.6869V32.155H64.6057L64.6057 32.6869ZM61.0264 38.5253L61.038 39.0571H61.038L61.0264 38.5253ZM60.3152 39.2682L59.7834 39.2797V39.2797L60.3152 39.2682ZM64.6625 38.4463L64.6741 38.9781H64.6741L64.6625 38.4463ZM66.8499 36.3302H66.318V36.3302L66.8499 36.3302ZM66.1947 34.7577L65.828 35.143L65.828 35.143L66.1947 34.7577ZM64.6057 34.1414V33.6095H64.6057L64.6057 34.1414ZM50.0906 34.1419V34.6738H50.0907L50.0906 34.1419ZM50.9872 32.6874V33.2193H52.067L51.409 32.3632L50.9872 32.6874ZM50.5317 26.8869L50.0008 26.8544L50.5317 26.8869ZM50.365 22.4795L50.8356 22.2316L50.8355 22.2316L50.365 22.4795ZM47.4296 20.6117L47.5048 21.1382L47.5048 21.1382L47.4296 20.6117ZM46.943 21.1483L46.4218 21.0421L46.4218 21.0421L46.943 21.1483ZM46.8661 22.0332L46.3349 22.0056L46.3349 22.0059L46.8661 22.0332ZM46.866 22.0342L47.3972 22.0617L47.3973 22.0615L46.866 22.0342ZM45.5278 27.3947L45.0563 27.1486L45.0562 27.1486L45.5278 27.3947ZM44.6798 30.4277L44.1553 30.3389L44.1534 30.3502L44.152 30.3617L44.6798 30.4277ZM44.6798 30.4277L45.1912 30.5738L45.2025 30.5344L45.2076 30.4937L44.6798 30.4277ZM44.6798 30.4277L44.1683 30.2816L44.1602 30.3099L44.1553 30.3389L44.6798 30.4277ZM40.7224 35.0367L40.6744 34.5069L40.1905 34.5508V35.0367H40.7224ZM39.268 34.1066H39.7999V33.575L39.2683 33.5747L39.268 34.1066ZM23.601 34.0977L23.6013 33.5658L23.19 33.5656L23.0863 33.9636L23.601 34.0977ZM22.8738 44.8295L22.3547 44.9456L22.8738 44.8295ZM25.1841 54.0352L24.6711 54.176L24.7785 54.5671H25.1841V54.0352ZM39.268 54.0352V54.5671H39.7999V54.0352H39.268ZM40.7224 53.1H40.1905V53.5961L40.6853 53.6307L40.7224 53.1ZM45.2095 54.0263L45.3529 53.5141L45.3514 53.5137L45.2095 54.0263ZM45.2103 54.0266L45.0669 54.5388L45.0684 54.5392L45.2103 54.0266ZM61.6705 52.6923L62.164 52.8908L62.164 52.8908L61.6705 52.6923ZM61.7935 50.7031L62.2864 50.5029L62.1131 50.0765L61.6662 50.1866L61.7935 50.7031ZM61.7681 49.1863L61.9677 49.6794L61.9836 49.6729L61.9991 49.6655L61.7681 49.1863ZM61.8304 49.16L62.0131 49.6596L62.0288 49.6538L62.0442 49.6471L61.8304 49.16ZM63.1578 47.8204L62.68 47.5867L62.68 47.5867L63.1578 47.8204ZM63.3643 45.4023L63.8629 45.217L63.6923 44.7578L63.2206 44.8901L63.3643 45.4023ZM64.7643 42.0039L64.2494 41.8704L64.2494 41.8704L64.7643 42.0039ZM64.4585 39.9054L64.8176 39.513L64.6602 39.369L64.447 39.3737L64.4585 39.9054ZM61.058 39.9794L61.0677 40.5112L61.0696 40.5112L61.058 39.9794ZM68.8363 36.3301C68.8363 35.1753 68.387 34.1019 67.5644 33.3189L66.8309 34.0894C67.4357 34.6652 67.7725 35.457 67.7725 36.3301H68.8363ZM66.209 40.1251C67.735 39.5119 68.8363 38.0417 68.8363 36.3301H67.7725C67.7725 37.5712 66.9698 38.6729 65.8124 39.1379L66.209 40.1251ZM66.687 42.5027C66.9738 41.3967 66.9019 40.2864 66.493 39.4072L65.5284 39.8558C65.8164 40.4751 65.8929 41.3269 65.6572 42.2356L66.687 42.5027ZM64.9955 45.162C65.8977 44.4548 66.4409 43.4515 66.687 42.5027L65.6572 42.2356C65.4572 43.007 65.0219 43.7896 64.3392 44.3248L64.9955 45.162ZM64.942 48.6935C65.606 47.3364 65.6875 45.7732 65.1562 44.5338L64.1784 44.953C64.5719 45.8708 64.5329 47.109 63.9864 48.226L64.942 48.6935ZM63.426 50.5259C64.0562 50.0731 64.5716 49.4508 64.942 48.6935L63.9864 48.226C63.6866 48.839 63.2812 49.32 62.8053 49.6619L63.426 50.5259ZM63.5132 53.4338C64.0055 52.2103 64.0474 50.902 63.6034 49.8817L62.6279 50.3061C62.9344 51.0105 62.9368 52.0165 62.5263 53.0368L63.5132 53.4338ZM58.1909 56.9131C60.6246 56.9131 62.6343 55.6183 63.5132 53.4338L62.5263 53.0368C61.82 54.7921 60.2194 55.8493 58.1909 55.8493V56.9131ZM50.0356 56.9131H58.1909V55.8493H50.0356V56.9131ZM44.6794 55.9408C46.3587 56.4058 48.1787 56.9131 50.0356 56.9131V55.8493C48.3479 55.8493 46.6684 55.3877 44.9632 54.9156L44.6794 55.9408ZM40.6805 55.0887C41.956 55.1896 43.2542 55.5462 44.6794 55.9408L44.9632 54.9156C43.5585 54.5266 42.1597 54.1386 40.7644 54.0282L40.6805 55.0887ZM41.2543 54.7625V54.5585H40.1905V54.7625H41.2543ZM39.9952 56.0216C40.6906 56.0216 41.2543 55.4579 41.2543 54.7625H40.1905C40.1905 54.8704 40.1031 54.9578 39.9952 54.9578V56.0216ZM25.1841 56.0216H39.9952V54.9578H25.1841V56.0216ZM23.9249 54.7625C23.9249 55.4579 24.4886 56.0216 25.1841 56.0216V54.9578C25.0762 54.9578 24.9887 54.8704 24.9887 54.7625H23.9249ZM21.6258 46.1329C22.1631 48.7104 22.7441 50.908 23.191 52.462C23.4145 53.2391 23.6046 53.8557 23.7391 54.2789C23.8064 54.4904 23.8597 54.6537 23.8964 54.7645C23.9148 54.8198 23.929 54.8621 23.9386 54.8908C23.9435 54.9051 23.9472 54.916 23.9497 54.9235C23.951 54.9272 23.952 54.9301 23.9527 54.9321C23.953 54.9331 23.9533 54.9338 23.9535 54.9344C23.9535 54.9347 23.9536 54.9349 23.9537 54.935C23.9537 54.9351 23.9537 54.9352 23.9538 54.9353C23.9538 54.9353 23.9538 54.9354 24.4568 54.7625C24.9599 54.5896 24.9599 54.5896 24.9599 54.5896C24.9599 54.5896 24.9599 54.5896 24.9599 54.5896C24.9598 54.5895 24.9598 54.5894 24.9597 54.5893C24.9596 54.5889 24.9594 54.5884 24.9592 54.5876C24.9587 54.5861 24.9578 54.5837 24.9567 54.5804C24.9545 54.5739 24.9511 54.5639 24.9466 54.5505C24.9375 54.5237 24.924 54.4833 24.9063 54.4299C24.8709 54.323 24.8189 54.1639 24.753 53.9566C24.6212 53.542 24.434 52.9348 24.2134 52.1679C23.7722 50.6339 23.1981 48.4624 22.6673 45.9159L21.6258 46.1329ZM22.1466 33.3706C21.6199 33.2959 21.6199 33.296 21.6199 33.2961C21.6199 33.2962 21.6199 33.2963 21.6198 33.2965C21.6198 33.2968 21.6197 33.2972 21.6197 33.2977C21.6195 33.2988 21.6193 33.3003 21.619 33.3023C21.6185 33.3063 21.6177 33.3121 21.6166 33.3196C21.6145 33.3347 21.6115 33.3568 21.6076 33.3857C21.5999 33.4435 21.5887 33.5284 21.575 33.6378C21.5475 33.8568 21.5095 34.1743 21.4674 34.571C21.3832 35.3641 21.2822 36.4751 21.2149 37.7479C21.0807 40.2825 21.0774 43.5017 21.6258 46.1329L22.6673 45.9159C22.1477 43.423 22.1443 40.3153 22.2772 37.8041C22.3434 36.554 22.4426 35.4622 22.5253 34.6833C22.5666 34.294 22.6038 33.9833 22.6305 33.7704C22.6439 33.664 22.6547 33.5821 22.662 33.5271C22.6657 33.4996 22.6686 33.4788 22.6705 33.4651C22.6714 33.4582 22.6721 33.4531 22.6726 33.4498C22.6728 33.4481 22.673 33.4469 22.6731 33.4462C22.6731 33.4458 22.6732 33.4455 22.6732 33.4454C22.6732 33.4453 22.6732 33.4453 22.6732 33.4452C22.6732 33.4452 22.6732 33.4453 22.1466 33.3706ZM22.8738 32.1555C22.2231 32.1555 21.6146 32.6323 21.6146 33.3706H22.6785C22.6785 33.3215 22.6953 33.2922 22.7189 33.2706C22.746 33.2458 22.797 33.2193 22.8738 33.2193V32.1555ZM39.994 32.1203L22.8727 32.1555L22.8749 33.2193L39.9961 33.1841L39.994 32.1203ZM41.2542 33.3794C41.2542 32.684 40.6905 32.1203 39.9951 32.1203V33.1841C40.1029 33.1841 40.1904 33.2716 40.1904 33.3794H41.2542ZM41.2542 33.5771V33.3794H40.1904V33.5771H41.2542ZM42.7212 30.0962C42.5463 31.1294 42.4232 31.8074 42.145 32.2747C41.9107 32.6683 41.5361 32.9531 40.6645 33.0483L40.7801 34.1059C41.8939 33.9842 42.6124 33.5691 43.0591 32.8189C43.4618 32.1425 43.6077 31.2328 43.7701 30.2737L42.7212 30.0962ZM43.7668 26.4756C43.1206 27.7135 42.9029 29.0226 42.7212 30.0962L43.7701 30.2737C43.955 29.1811 44.1528 28.0351 44.7099 26.9678L43.7668 26.4756ZM44.8823 21.9314C44.8222 23.0921 44.742 24.6073 43.7668 26.4755L44.7099 26.9678C45.7959 24.8872 45.8829 23.1792 45.9447 21.9864L44.8823 21.9314ZM44.8824 21.9283L44.8823 21.9316L45.9447 21.9863L45.9449 21.9831L44.8824 21.9283ZM44.9966 20.7517C44.9238 21.1088 44.9038 21.5178 44.8824 21.9281L45.9448 21.9833C45.9674 21.5482 45.9854 21.227 46.039 20.9641L44.9966 20.7517ZM47.1487 18.6452C46.0142 18.8072 45.2297 19.6077 44.9966 20.7517L46.039 20.9641C46.1907 20.2198 46.6498 19.7911 47.2991 19.6983L47.1487 18.6452ZM52.1223 21.5536C51.6494 20.6559 50.8345 19.8793 49.9508 19.3546C49.0753 18.8346 48.0531 18.5161 47.1487 18.6452L47.2991 19.6983C47.875 19.6161 48.6485 19.8184 49.4076 20.2693C50.1587 20.7153 50.8175 21.3592 51.1811 22.0495L52.1223 21.5536ZM52.5885 26.8846C52.6098 25.8443 52.6317 24.7882 52.5851 23.875C52.5398 22.985 52.4272 22.1325 52.1223 21.5536L51.1811 22.0495C51.3659 22.4003 51.4773 23.0382 51.5227 23.9291C51.5669 24.7967 51.5464 25.8119 51.5249 26.8628L52.5885 26.8846ZM53.1566 32.2972C53.0483 32.1968 52.9291 31.998 52.8283 31.6512C52.7297 31.3123 52.6629 30.8827 52.6214 30.3776C52.5383 29.3655 52.5629 28.1369 52.5885 26.8846L51.5249 26.8628C51.4996 28.0989 51.4727 29.387 51.5611 30.4646C51.6054 31.0043 51.6801 31.5129 51.8068 31.9483C51.9311 32.3759 52.121 32.7877 52.4332 33.0773L53.1566 32.2972ZM64.6057 32.155L52.7949 32.1554L52.7949 33.2192L64.6057 33.2188L64.6057 32.155ZM67.5644 33.3189C66.7728 32.5654 65.7196 32.155 64.6057 32.155V33.2188C65.4564 33.2188 66.2441 33.5309 66.8309 34.0894L67.5644 33.3189ZM61.0148 37.9935C60.3196 38.0086 59.7683 38.5845 59.7834 39.2797L60.847 39.2566C60.8446 39.1487 60.9301 39.0594 61.038 39.0571L61.0148 37.9935ZM64.651 37.9145L61.0148 37.9935L61.038 39.0571L64.6741 38.9781L64.651 37.9145ZM66.318 36.3302C66.318 37.1546 65.5956 37.8939 64.651 37.9145L64.6741 38.9781C66.1418 38.9461 67.3819 37.7869 67.3818 36.3301L66.318 36.3302ZM65.828 35.143C66.1394 35.4393 66.318 35.8559 66.318 36.3302H67.3818C67.3818 35.5807 67.0951 34.8804 66.5614 34.3724L65.828 35.143ZM64.6057 34.6734C65.0844 34.6734 65.5151 34.8451 65.828 35.143L66.5615 34.3724C66.0394 33.8754 65.3414 33.6095 64.6057 33.6095V34.6734ZM50.0907 34.6738L64.6057 34.6734L64.6057 33.6095L50.0906 33.61L50.0907 34.6738ZM48.8315 33.4146C48.8315 34.11 49.3953 34.6738 50.0906 34.6738V33.61C49.9828 33.61 49.8953 33.5225 49.8953 33.4146H48.8315ZM50.0906 32.1555C49.3953 32.1555 48.8315 32.7193 48.8315 33.4146H49.8953C49.8953 33.3068 49.9828 33.2193 50.0906 33.2193V32.1555ZM50.9872 32.1555H50.0906V33.2193H50.9872V32.1555ZM50.0008 26.8544C49.9301 28.0093 49.8541 29.2431 49.893 30.3117C49.9125 30.8473 49.9613 31.3585 50.0596 31.8092C50.1567 32.2542 50.3103 32.6796 50.5655 33.0116L51.409 32.3632C51.2888 32.2069 51.1799 31.9535 51.099 31.5825C51.0193 31.2171 50.9744 30.7749 50.9561 30.273C50.9195 29.2665 50.9911 28.0884 51.0627 26.9194L50.0008 26.8544ZM49.8943 22.7275C49.9512 22.8354 50.0065 23.0168 50.0458 23.291C50.0841 23.559 50.103 23.8836 50.1065 24.2576C50.1136 25.0077 50.059 25.9034 50.0008 26.8544L51.0627 26.9194C51.1202 25.9797 51.1778 25.043 51.1703 24.2476C51.1666 23.8489 51.1465 23.4727 51.0988 23.1401C51.0521 22.8137 50.9743 22.4949 50.8356 22.2316L49.8943 22.7275ZM47.5048 21.1382C47.7212 21.1073 48.1745 21.2162 48.6985 21.5351C49.2019 21.8414 49.655 22.2731 49.8944 22.7275L50.8355 22.2316C50.4819 21.5604 49.8675 21.0011 49.2515 20.6263C48.6562 20.264 47.9384 20.0017 47.3545 20.0851L47.5048 21.1382ZM47.4642 21.2545C47.4953 21.1018 47.5297 21.0982 47.4982 21.1255C47.467 21.1525 47.4403 21.1474 47.5048 21.1382L47.3545 20.0851C47.231 20.1027 47.0062 20.144 46.8013 20.3217C46.5961 20.4996 46.4811 20.7509 46.4218 21.0421L47.4642 21.2545ZM47.3973 22.0608C47.4173 21.6758 47.4326 21.4097 47.4642 21.2545L46.4218 21.0421C46.3703 21.295 46.3528 21.6599 46.3349 22.0056L47.3973 22.0608ZM47.3973 22.0615L47.3973 22.0605L46.3349 22.0059L46.3348 22.0069L47.3973 22.0615ZM45.9993 27.6409C47.2318 25.2797 47.3323 23.3153 47.3972 22.0617L46.3348 22.0067C46.2717 23.2261 46.1784 24.9988 45.0563 27.1486L45.9993 27.6409ZM45.2042 30.5164C45.3801 29.4775 45.5494 28.503 45.9994 27.6408L45.0562 27.1486C44.5157 28.1844 44.3263 29.3286 44.1553 30.3389L45.2042 30.5164ZM45.2076 30.4937L45.2076 30.4936L44.152 30.3617L44.152 30.3617L45.2076 30.4937ZM45.1912 30.5739L45.1912 30.5738L44.1683 30.2816L44.1683 30.2816L45.1912 30.5739ZM40.7705 35.5664C42.5293 35.4069 43.5909 34.6855 44.2322 33.6678C44.8421 32.6998 45.0363 31.5086 45.2042 30.5165L44.1553 30.3389C43.9794 31.378 43.8083 32.3451 43.3322 33.1006C42.8874 33.8064 42.1423 34.3738 40.6744 34.5069L40.7705 35.5664ZM41.2543 40.7981V35.0367H40.1905V40.7981H41.2543ZM39.9952 42.0573C40.6906 42.0573 41.2543 41.4935 41.2543 40.7981H40.1905C40.1905 40.906 40.1031 40.9934 39.9952 40.9934V42.0573ZM38.7361 40.7981C38.7361 41.4935 39.2998 42.0573 39.9952 42.0573V40.9934C39.8873 40.9934 39.7999 40.906 39.7999 40.7981H38.7361ZM38.7361 34.1066V40.7981H39.7999V34.1066H38.7361ZM23.6007 34.6296L39.2677 34.6385L39.2683 33.5747L23.6013 33.5658L23.6007 34.6296ZM23.3929 44.7134C22.9368 42.674 23.1064 40.0699 23.4057 37.9348C23.5543 36.8755 23.7324 35.9472 23.8733 35.2841C23.9437 34.9528 24.0047 34.6882 24.0479 34.5071C24.0696 34.4166 24.0867 34.347 24.0984 34.3004C24.1042 34.2771 24.1086 34.2596 24.1116 34.2481C24.113 34.2423 24.1141 34.2381 24.1148 34.2354C24.1152 34.234 24.1154 34.233 24.1156 34.2324C24.1157 34.2322 24.1157 34.232 24.1157 34.2319C24.1158 34.2318 24.1158 34.2318 24.1158 34.2318C24.1158 34.2318 24.1157 34.2319 23.601 34.0977C23.0863 33.9636 23.0863 33.9637 23.0862 33.9638C23.0862 33.9639 23.0862 33.964 23.0861 33.9642C23.0861 33.9645 23.086 33.9649 23.0858 33.9654C23.0856 33.9664 23.0852 33.9677 23.0848 33.9695C23.0839 33.973 23.0825 33.9781 23.0809 33.9847C23.0775 33.9979 23.0726 34.0172 23.0663 34.0422C23.0538 34.0923 23.0357 34.1656 23.0132 34.26C22.9681 34.4488 22.9051 34.7221 22.8327 35.063C22.6879 35.7444 22.505 36.6977 22.3522 37.7871C22.049 39.9495 21.855 42.7113 22.3547 44.9456L23.3929 44.7134ZM25.1841 54.0352C25.697 53.8943 25.697 53.8943 25.697 53.8943C25.697 53.8942 25.6969 53.8942 25.6969 53.8941C25.6969 53.894 25.6968 53.8938 25.6968 53.8935C25.6966 53.8929 25.6964 53.8921 25.696 53.8909C25.6954 53.8886 25.6944 53.885 25.6932 53.8804C25.6906 53.871 25.6868 53.857 25.6817 53.8386C25.6716 53.8016 25.6567 53.7468 25.6373 53.6755C25.5985 53.5328 25.542 53.324 25.4712 53.06C25.3296 52.532 25.1309 51.7834 24.9023 50.9015C24.4448 49.1368 23.8689 46.8419 23.3929 44.7134L22.3547 44.9456C22.8345 47.0908 23.4137 49.3987 23.8725 51.1685C24.1019 52.0537 24.3015 52.8053 24.4437 53.3356C24.5148 53.6007 24.5716 53.8106 24.6107 53.9544C24.6302 54.0262 24.6453 54.0815 24.6555 54.1189C24.6606 54.1376 24.6645 54.1519 24.6671 54.1614C24.6684 54.1662 24.6694 54.1698 24.6701 54.1723C24.6704 54.1735 24.6707 54.1744 24.6709 54.1751C24.6709 54.1754 24.671 54.1756 24.6711 54.1758C24.6711 54.1759 24.6711 54.1759 24.6711 54.176C24.6711 54.176 24.6711 54.176 25.1841 54.0352ZM39.268 53.5033H25.1841V54.5671H39.268V53.5033ZM38.7361 47.3432V54.0352H39.7999V47.3432H38.7361ZM39.9952 46.084C39.2998 46.084 38.7361 46.6477 38.7361 47.3432H39.7999C39.7999 47.2353 39.8873 47.1478 39.9952 47.1478V46.084ZM41.2543 47.3432C41.2543 46.6477 40.6906 46.084 39.9952 46.084V47.1478C40.1031 47.1478 40.1905 47.2353 40.1905 47.3432H41.2543ZM41.2543 53.1V47.3432H40.1905V53.1H41.2543ZM45.3514 53.5137C43.9001 53.1118 42.3453 52.6802 40.7595 52.5694L40.6853 53.6307C42.1465 53.7328 43.5982 54.1321 45.0676 54.5389L45.3514 53.5137ZM45.3538 53.5143L45.3529 53.5141L45.0661 54.5385L45.0669 54.5388L45.3538 53.5143ZM50.0356 54.3947C48.5467 54.3947 47.0394 53.981 45.3523 53.5139L45.0684 54.5392C46.7249 54.9978 48.3759 55.4585 50.0356 55.4585V54.3947ZM58.1911 54.3947H50.0356V55.4585H58.1911V54.3947ZM61.177 52.4937C60.9452 53.0699 60.208 54.3947 58.1911 54.3947V55.4585C60.8322 55.4585 61.8552 53.6583 62.164 52.8908L61.177 52.4937ZM61.3007 50.9033C61.4224 51.2028 61.4602 51.7899 61.177 52.4937L62.164 52.8908C62.5251 51.9932 62.5346 51.1139 62.2864 50.5029L61.3007 50.9033ZM60.8008 51.3531C61.1864 51.3531 61.5612 51.3082 61.9208 51.2196L61.6662 50.1866C61.3927 50.2541 61.1035 50.2893 60.8008 50.2893V51.3531ZM59.5417 50.094C59.5417 50.7894 60.1054 51.3531 60.8008 51.3531V50.2893C60.6929 50.2893 60.6055 50.2018 60.6055 50.094H59.5417ZM60.8008 48.8348C60.1054 48.8348 59.5417 49.3986 59.5417 50.094H60.6055C60.6055 49.9861 60.6929 49.8987 60.8008 49.8987V48.8348ZM61.5685 48.6933C61.3568 48.779 61.1041 48.8348 60.8008 48.8348V49.8987C61.2391 49.8987 61.6275 49.8171 61.9677 49.6794L61.5685 48.6933ZM61.6478 48.6604C61.6105 48.674 61.5735 48.6896 61.5371 48.7072L61.9991 49.6655C62.0034 49.6634 62.0082 49.6614 62.0131 49.6596L61.6478 48.6604ZM62.68 47.5867C62.5044 47.9457 62.1733 48.4286 61.6166 48.6729L62.0442 49.6471C62.9296 49.2584 63.4082 48.5191 63.6356 48.0542L62.68 47.5867ZM62.8657 45.5876C63.0598 46.1098 63.0198 46.8922 62.68 47.5867L63.6356 48.0542C64.0812 47.1435 64.1749 46.0567 63.8629 45.217L62.8657 45.5876ZM62.1962 46.0886C62.6673 46.0886 63.1047 46.0275 63.5079 45.9144L63.2206 44.8901C62.915 44.9758 62.5744 45.0248 62.1962 45.0248V46.0886ZM60.9371 44.8295C60.9371 45.5249 61.5008 46.0886 62.1962 46.0886V45.0248C62.0883 45.0248 62.0009 44.9374 62.0009 44.8295H60.9371ZM62.1962 43.5704C61.5008 43.5704 60.9371 44.1341 60.9371 44.8295H62.0009C62.0009 44.7216 62.0883 44.6342 62.1962 44.6342V43.5704ZM64.2494 41.8704C64.1953 42.0789 64.0491 42.5172 63.7304 42.8944C63.4265 43.2539 62.9587 43.5704 62.1962 43.5704V44.6342C63.3117 44.6342 64.0641 44.1476 64.5429 43.581C65.0068 43.0321 65.2056 42.4212 65.2792 42.1374L64.2494 41.8704ZM64.0995 40.2979C64.1706 40.3629 64.2712 40.5341 64.3172 40.8434C64.3612 41.1389 64.3451 41.5013 64.2494 41.8704L65.2792 42.1375C65.408 41.6406 65.436 41.134 65.3695 40.6868C65.305 40.2534 65.1404 39.8084 64.8176 39.513L64.0995 40.2979ZM61.0696 40.5112L64.4701 40.4372L64.447 39.3737L61.0465 39.4476L61.0696 40.5112ZM59.7834 39.2797C59.7985 39.9769 60.3762 40.5238 61.0677 40.5112L61.0484 39.4476C60.9375 39.4496 60.8493 39.3625 60.847 39.2566L59.7834 39.2797Z" fill="white" mask="url(#path-3-outside-1)"/>
<path fill-rule="evenodd" clip-rule="evenodd" d="M82.149 59.96L82.149 59.9602C81.4828 63.3541 80.7937 66.8637 78.3383 69.3191C77.5842 70.0732 76.7301 70.6596 75.8111 71.1309L85.3613 88.9811C85.601 89.4287 85.5916 89.9684 85.3367 90.4074C85.082 90.8465 84.618 91.1223 84.1104 91.1363L74.3438 91.4062L68.6998 99.3816C68.4242 99.7709 67.9775 100 67.5043 100C67.4738 100 67.4434 99.9992 67.4129 99.9973C66.9062 99.9658 66.452 99.674 66.2125 99.2264L55.6287 79.4445C53.7812 80.4682 51.8199 81.2123 49.6256 81.2123C47.4313 81.2123 45.4699 80.4682 43.6225 79.4445L33.0387 99.2262C32.7992 99.6738 32.3449 99.9654 31.8383 99.9971C31.8078 99.999 31.7771 100 31.7469 100C31.2736 100 30.827 99.7709 30.5514 99.3814L24.9074 91.4062L15.1408 91.1361C14.6334 91.1221 14.1693 90.8463 13.9145 90.4072C13.6596 89.9682 13.6502 89.4285 13.8898 88.9809L23.4402 71.1307C22.5211 70.6592 21.6668 70.0729 20.9125 69.3186C18.4571 66.8631 17.7684 63.3538 17.1024 59.9601L17.1023 59.96C16.725 58.0371 16.3686 56.2209 15.7176 54.651C15.1058 53.1752 14.1005 51.6995 13.0361 50.1373L13.0361 50.1372L13.0354 50.1361L13.0352 50.136C11.061 47.2384 9.01953 44.2419 9.01953 40.6061C9.01953 36.9704 11.0608 33.9741 13.0349 31.0764L13.0354 31.0758C14.1 29.5131 15.1055 28.0371 15.7176 26.5609C16.3687 24.9913 16.7252 23.1749 17.1025 21.2521L17.1025 21.252C17.7686 17.858 18.4574 14.3486 20.9131 11.893C23.3685 9.43754 26.8778 8.74885 30.2715 8.08285L30.2717 8.08281C32.1945 7.70547 34.0107 7.34902 35.5807 6.69805C37.0565 6.08628 38.5321 5.08095 40.0944 4.01658L40.0955 4.01582L40.0957 4.01571C42.9933 2.04152 45.9897 0 49.6256 0C53.2611 0 56.2571 2.04095 59.1549 4.01507L59.1562 4.01602L59.1581 4.01728C60.7199 5.08127 62.1953 6.08638 63.6709 6.69824C65.2406 7.3492 67.0569 7.70565 68.9797 8.08298L68.9799 8.08301C72.3736 8.74902 75.8832 9.43789 78.3389 11.8936C80.7943 14.349 81.483 17.8583 82.149 21.252L82.149 21.2521C82.5264 23.175 82.8828 24.9912 83.5338 26.5611C84.1456 28.037 85.1509 29.5126 86.2153 31.0749L86.216 31.076L86.2161 31.0761C88.1903 33.9737 90.2318 36.9702 90.2318 40.6061C90.2318 44.2417 88.1905 47.2381 86.2164 50.1357L86.216 50.1363L86.2137 50.1397C85.1501 51.7012 84.1455 53.1761 83.5338 54.6512C82.8828 56.2209 82.5264 58.0372 82.149 59.96ZM26.876 89.116L31.5738 95.7543L41.1287 77.8963C40.7824 77.6645 40.4383 77.4301 40.0957 77.1967C38.5402 76.1371 37.0709 75.1365 35.6018 74.5236L29.9262 85.1314C29.6623 85.6246 29.1562 85.9055 28.6334 85.9055C28.4 85.9055 28.1635 85.8496 27.9436 85.7318C27.2301 85.3502 26.9613 84.4625 27.343 83.7492L32.748 73.6469C31.9508 73.4605 31.1227 73.2963 30.2715 73.1293C28.9047 72.8609 27.5201 72.5869 26.1922 72.1975L17.5912 88.2732L25.7207 88.4979C26.1816 88.5106 26.6096 88.7397 26.876 89.116ZM81.6604 88.273L73.5309 88.4977C73.0699 88.5104 72.642 88.7395 72.3756 89.1158L67.6777 95.7541L58.123 77.8959C58.4693 77.6641 58.8133 77.4299 59.1561 77.1965C60.7113 76.1367 62.1809 75.1363 63.65 74.5234L69.3256 85.1311C69.5896 85.6244 70.0953 85.9051 70.6184 85.9051C70.8516 85.9051 71.0883 85.8492 71.3082 85.7314C72.0215 85.3498 72.2904 84.4621 71.9088 83.7488L66.5037 73.6465C67.3008 73.4604 68.1289 73.2961 68.9799 73.1291C70.3469 72.8607 71.7316 72.5869 73.0596 72.1973L81.6604 88.273ZM62.5482 71.808C64.3887 71.0447 66.4357 70.643 68.4152 70.2545C71.5148 69.6463 74.4426 69.0717 76.2668 67.2477C78.091 65.4233 78.6656 62.4957 79.274 59.3962L79.274 59.3959C79.6625 57.4164 80.0643 55.3693 80.8275 53.5289C81.5549 51.7746 82.6936 50.1031 83.7947 48.4869L83.7956 48.4856C85.599 45.8384 87.3021 43.3384 87.3021 40.6061C87.3021 37.8738 85.5989 35.3735 83.7957 32.7265L83.7949 32.7254C82.6937 31.1092 81.5551 29.4377 80.8275 27.6834C80.0643 25.8428 79.6625 23.7959 79.274 21.8162L79.2739 21.8158C78.6658 18.7165 78.0913 15.7892 76.2672 13.965C74.4428 12.1408 71.5152 11.5662 68.4154 10.9578C66.4359 10.5693 64.3889 10.1676 62.5484 9.4043C60.7941 8.67695 59.1227 7.53828 57.5064 6.43711L57.5062 6.43692C54.8588 4.63328 52.3583 2.92969 49.6256 2.92969C46.894 2.92969 44.3939 4.63239 41.7469 6.43512L41.7445 6.43672C40.1283 7.53789 38.4568 8.67656 36.7025 9.4041C34.8619 10.1674 32.815 10.5691 30.8354 10.9576L30.835 10.9577C27.7357 11.5659 24.8083 12.1403 22.9842 13.9645C21.16 15.7888 20.5854 18.7164 19.977 21.8159L19.977 21.8162C19.5885 23.7957 19.1867 25.8428 18.4234 27.6832C17.6959 29.4375 16.5572 31.109 15.4561 32.7252L15.4553 32.7263C13.6521 35.3733 11.9488 37.8736 11.9488 40.6061C11.9488 43.3383 13.6521 45.8386 15.4553 48.4856L15.4561 48.4867C16.5572 50.1029 17.6959 51.7744 18.4234 53.5287C19.1867 55.3693 19.5885 57.4162 19.977 59.3959L19.977 59.3963C20.5852 62.4956 21.1596 65.4229 22.9838 67.2471C24.8081 69.0712 27.7357 69.6459 30.8352 70.2542L30.8355 70.2543C32.8152 70.6428 34.8623 71.0445 36.7027 71.8078C38.457 72.5354 40.1285 73.674 41.7447 74.7752L41.745 74.7754C44.3924 76.579 46.8929 78.2826 49.6256 78.2826C52.3578 78.2826 54.8581 76.5794 57.5052 74.7761L57.5063 74.7754C59.1225 73.6742 60.7939 72.5355 62.5482 71.808Z" fill="white"/>
<path d="M63.0609 14.1755C51.8336 8.43945 37.9083 10.3988 28.6633 19.6436C18.8299 29.4768 18.9103 47.7853 26.0556 59.3303C26.6836 60.3449 27.3192 60.4189 27.7487 60.4189C28.0698 60.4189 28.3932 60.3136 28.6633 60.0974C29.2948 59.5917 29.1722 58.7868 28.6269 57.9164C22.0995 47.4979 21.8383 30.6118 30.735 21.7151C39.0527 13.3974 51.5748 11.6238 61.6831 16.7622C62.5624 17.2091 63.4256 17.1418 63.9128 16.5336C64.4185 15.9022 64.2571 14.7866 63.0609 14.1755Z" fill="white"/>
<path d="M73.2867 25.4678C72.4362 26.0236 72.5912 26.9275 73.0217 27.704C78.7038 37.9516 77.0693 50.9465 68.5181 59.4977C61.5227 66.4931 51.5535 68.8597 42.5473 66.3786C41.5617 66.1071 40.6571 66.3045 40.3071 67.1425C39.957 67.9806 40.7955 68.9419 41.9167 69.2446C44.4431 69.9265 47.0362 70.2655 49.6259 70.2655C57.2408 70.2655 64.8255 67.3335 70.5896 61.5694C79.9341 52.2251 81.8226 38.0768 75.8682 26.8077C75.1603 25.4678 74.1371 24.9119 73.2867 25.4678Z" fill="white"/>
</svg>
