<svg width="100" height="81" viewBox="0 0 100 81" fill="none" xmlns="http://www.w3.org/2000/svg">
<g opacity="0.1">
<path d="M2.07974 32.5285C7.34733 13.6809 20.3487 -0.00390451 32.9866 -0.00390451C33.9981 -0.0043573 35.0077 0.0835632 36.0039 0.258854C36.5627 0.355727 37.0543 0.684931 37.3567 1.16478C37.6591 1.64464 37.7439 2.23017 37.5901 2.7761L34.9887 12.0816C34.7309 12.9744 33.8995 13.5779 32.9708 13.5464L32.7639 13.5423C28.0742 13.5423 19.5115 20.5664 15.1453 36.1782C14.9728 36.7989 14.8087 37.4313 14.6515 38.092C19.6377 35.653 25.3421 35.1153 30.6963 36.5795C38.4354 38.7438 44.432 44.8725 46.4272 52.6569C48.4225 60.4413 46.1132 68.6988 40.3693 74.319C34.6254 79.9391 26.3195 82.068 18.5804 79.9037C10.7004 77.7057 4.78043 71.1685 1.9025 61.4954C-0.694741 52.7713 -0.629913 42.2133 2.07974 32.5285Z" fill="#D0A523"/>
<path d="M85.0832 0.0039126C86.0939 0.00304757 87.1028 0.0905067 88.0983 0.265292C88.6569 0.362767 89.148 0.692092 89.4503 1.17176C89.7525 1.65144 89.8376 2.23664 89.6845 2.78253L87.0832 12.0874C86.8294 12.983 85.9954 13.5884 85.0652 13.5522L84.8583 13.5481C80.1687 13.5481 71.6052 20.5722 67.2383 36.1839C67.0645 36.8046 66.9011 37.4412 66.7445 38.0977C71.7313 35.6587 77.4362 35.1212 82.7907 36.586C90.5629 38.7223 96.5978 44.854 98.6103 52.6591C100.623 60.4642 98.3053 68.7495 92.5352 74.3776C86.7652 80.0058 78.4247 82.1163 70.6721 79.9101C62.7956 77.708 56.8728 71.1681 53.9942 61.4963C51.3976 52.7722 51.4618 42.2136 54.1701 32.5308C59.4432 13.6839 72.4425 0.0039126 85.0832 0.0039126Z" fill="#D0A523"/>
</g>
</svg>
