<svg width="17" height="17" viewBox="0 0 17 17" fill="none" xmlns="http://www.w3.org/2000/svg">
<path fill-rule="evenodd" clip-rule="evenodd" d="M16.1676 15.2524L11.3967 10.4899C13.6424 7.74342 13.2363 3.69654 10.4899 1.45089C7.74345 -0.794746 3.69654 -0.388713 1.45089 2.35773C-0.794746 5.10418 -0.388713 9.1511 2.35773 11.3967C4.7234 13.331 8.12424 13.331 10.4899 11.3967L15.2608 16.1593C15.5156 16.4053 15.9216 16.3983 16.1676 16.1435C16.4076 15.895 16.4076 15.5009 16.1676 15.2524ZM6.43408 11.5648C3.6018 11.5616 1.30656 9.26635 1.3034 6.43408C1.3034 3.60049 3.60049 1.3034 6.43408 1.3034C9.26767 1.3034 11.5648 3.60049 11.5648 6.43408C11.5648 9.26767 9.26767 11.5648 6.43408 11.5648Z" fill="#D0A523"/>
</svg>
