<svg width="24" height="21" viewBox="0 0 24 21" fill="none" xmlns="http://www.w3.org/2000/svg">
<path d="M8.95367 20.1426C7.91583 20.1426 6.8476 20.0586 5.77295 19.8901C3.88019 19.5931 1.96417 18.6031 1.422 18.3066L0 17.5291L1.53955 17.0229C3.22247 16.4695 4.24622 16.1262 5.51349 15.5886C4.24457 14.9741 3.2666 13.8687 2.79584 12.4397L2.43768 11.3525L2.73138 11.3973C2.45288 11.1166 2.23297 10.8317 2.0625 10.5726C1.45624 9.65177 1.13525 8.52658 1.20355 7.56235L1.27094 6.61332L1.83911 6.83341C1.59943 6.38077 1.42621 5.89737 1.3244 5.39072C1.07629 4.15512 1.28394 2.84244 1.90924 1.69455L2.40417 0.785984L3.0661 1.58103C5.15955 4.0958 7.8111 5.58756 10.9581 6.02426C10.8296 5.13822 10.9259 4.28311 11.2447 3.51664C11.6158 2.62418 12.2761 1.8674 13.1536 1.32798C14.1281 0.729038 15.3098 0.438816 16.4811 0.510776C17.7239 0.587131 18.8522 1.05277 19.7483 1.85825C20.1859 1.74454 20.5084 1.62314 20.9442 1.45908C21.2064 1.36039 21.5037 1.24832 21.8758 1.12015L23.2469 0.647739L22.3528 3.20133C22.4117 3.19638 22.4725 3.19217 22.5361 3.18943L24.0002 3.12314L23.1348 4.30582C23.0852 4.37357 23.0726 4.3928 23.055 4.41935C22.9852 4.52445 22.8984 4.65519 21.7106 6.24124C21.4133 6.6384 21.2648 7.15567 21.2924 7.69803C21.3977 9.75907 21.1448 11.6238 20.5404 13.2403C19.9688 14.7696 19.0829 16.0817 17.9077 17.1402C16.4535 18.4498 14.5992 19.3465 12.3961 19.805C11.3154 20.0298 10.1548 20.1426 8.95367 20.1426Z" fill="#D3D5D9"/>
</svg>
